<svg width="273" height="300" viewBox="0 0 273 300" fill="none" xmlns="http://www.w3.org/2000/svg">
<path fill-rule="evenodd" clip-rule="evenodd" d="M228.562 235.234C255.306 210.445 272.04 175.046 272.04 135.747C272.04 60.7758 211.142 0 136.02 0C60.8983 0 0 60.7758 0 135.747C0 175.043 16.7309 210.439 43.4714 235.227C38.7063 269.427 65.3271 300 99.9853 300H170.877C205.683 300 232.643 269.671 228.562 235.234ZM13.7877 142.534C15.3562 171.121 26.7721 197.09 44.7079 217.121L103.24 158.707C100.09 153.942 97.9224 148.451 97.0303 142.534H13.7877ZM54.3174 226.729L112.55 168.614C117.378 172.248 123.053 174.79 129.219 175.878V257.733C100.497 256.164 74.4113 244.713 54.3174 226.729ZM142.821 257.733V175.878C148.95 174.796 154.593 172.279 159.402 168.68L217.641 226.802C197.558 244.744 171.504 256.166 142.821 257.733ZM227.259 217.203L168.739 158.801C171.922 154.013 174.112 148.49 175.01 142.534H258.253C256.682 171.16 245.237 197.161 227.259 217.203ZM258.253 128.959H174.782C173.702 123.149 171.387 117.783 168.124 113.151L227.186 54.2082C245.206 74.2616 256.68 100.295 258.253 128.959ZM217.559 44.618L158.525 103.533C153.912 100.274 148.581 97.9893 142.821 96.9731V13.76C171.465 15.3253 197.487 26.7183 217.559 44.618ZM129.219 13.76V96.9731C123.421 97.996 118.058 100.304 113.424 103.597L54.3993 44.6912C74.4822 26.7493 100.536 15.3275 129.219 13.76ZM44.7813 54.29L103.853 113.243C100.623 117.853 98.3308 123.187 97.2586 128.959H13.7877C15.3584 100.334 26.8032 74.3324 44.7813 54.29ZM163.224 135.747C163.224 150.741 151.044 162.896 136.02 162.896C120.996 162.896 108.816 150.741 108.816 135.747C108.816 120.752 120.996 108.597 136.02 108.597C151.044 108.597 163.224 120.752 163.224 135.747Z" fill="white"/>
</svg>
