<svg width="363" height="400" viewBox="0 0 363 400" fill="none" xmlns="http://www.w3.org/2000/svg">
<path fill-rule="evenodd" clip-rule="evenodd" d="M304.749 313.646C340.409 280.594 362.72 233.395 362.72 180.996C362.72 81.0345 281.523 0 181.36 0C81.1977 0 0 81.0345 0 180.996C0 233.39 22.3079 280.585 57.9618 313.637C51.6083 359.236 87.1028 400 133.314 400H227.836C274.244 400 310.19 359.561 304.749 313.646ZM18.3837 190.045C20.475 228.161 35.6961 262.787 59.6106 289.495L137.653 211.61C133.454 205.255 130.563 197.935 129.374 190.045H18.3837ZM72.4232 302.305L150.066 224.818C156.504 229.664 164.071 233.053 172.292 234.504V343.644C133.996 341.552 99.215 326.284 72.4232 302.305ZM190.428 343.644V234.504C198.6 233.062 206.124 229.706 212.536 224.907L290.188 302.403C263.411 326.325 228.673 341.554 190.428 343.644ZM303.012 289.604L224.985 211.734C229.229 205.351 232.149 197.986 233.347 190.045H344.337C342.243 228.213 326.983 262.881 303.012 289.604ZM344.337 171.946H233.042C231.603 164.199 228.516 157.043 224.165 150.869L302.914 72.2776C326.941 99.0155 342.24 133.726 344.337 171.946ZM290.079 59.4907L211.367 138.044C205.216 133.698 198.108 130.652 190.428 129.297V18.3467C228.621 20.4338 263.316 35.6243 290.079 59.4907ZM172.292 18.3467V129.297C164.562 130.661 157.411 133.739 151.232 138.13L72.5325 59.5883C99.3096 35.6658 134.048 20.4366 172.292 18.3467ZM59.7084 72.3866L138.47 150.99C134.164 157.137 131.108 164.25 129.678 171.946H18.3837C20.4778 133.778 35.7376 99.1099 59.7084 72.3866ZM217.632 180.996C217.632 200.988 201.393 217.195 181.36 217.195C161.328 217.195 145.088 200.988 145.088 180.996C145.088 161.003 161.328 144.796 181.36 144.796C201.393 144.796 217.632 161.003 217.632 180.996Z" fill="url(#paint0_linear_18_31)"/>
<defs>
<linearGradient id="paint0_linear_18_31" x1="0" y1="200" x2="243.5" y2="200" gradientUnits="userSpaceOnUse">
<stop stop-color="#BF55EC"/>
<stop offset="1" stop-color="#FE5F55"/>
</linearGradient>
</defs>
</svg>
